<svg width="512" height="512" viewBox="0 0 512 512" fill="none" xmlns="http://www.w3.org/2000/svg">
  <defs>
    <linearGradient id="outerShell" x1="104" y1="72" x2="408" y2="440" gradientUnits="userSpaceOnUse">
      <stop offset="0" stop-color="#596068" />
      <stop offset="0.34" stop-color="#3E454D" />
      <stop offset="1" stop-color="#23282F" />
    </linearGradient>
    <radialGradient id="innerPanel" cx="0" cy="0" r="1" gradientUnits="userSpaceOnUse" gradientTransform="translate(260 258) rotate(90) scale(180)">
      <stop offset="0" stop-color="#CDD4DD" />
      <stop offset="0.6" stop-color="#A7B0BB" />
      <stop offset="1" stop-color="#7F8995" />
    </radialGradient>
    <radialGradient id="innerGlow" cx="0" cy="0" r="1" gradientUnits="userSpaceOnUse" gradientTransform="translate(258 220) rotate(90) scale(130)">
      <stop offset="0" stop-color="#FFFFFF" stop-opacity="0.34" />
      <stop offset="1" stop-color="#FFFFFF" stop-opacity="0" />
    </radialGradient>
    <linearGradient id="blueArc" x1="156" y1="334" x2="372" y2="214" gradientUnits="userSpaceOnUse">
      <stop offset="0" stop-color="#66C8F7" />
      <stop offset="1" stop-color="#4F79E6" />
    </linearGradient>
    <linearGradient id="whiteArc" x1="172" y1="286" x2="350" y2="182" gradientUnits="userSpaceOnUse">
      <stop offset="0" stop-color="#FFFFFF" stop-opacity="0.22" />
      <stop offset="0.48" stop-color="#FFFFFF" stop-opacity="0.8" />
      <stop offset="1" stop-color="#FFFFFF" stop-opacity="0.34" />
    </linearGradient>
    <filter id="shadow" x="42" y="42" width="428" height="428" color-interpolation-filters="sRGB">
      <feDropShadow dx="0" dy="18" stdDeviation="18" flood-color="#000000" flood-opacity="0.24" />
    </filter>
  </defs>

  <rect x="72" y="72" width="368" height="368" rx="92" fill="url(#outerShell)" filter="url(#shadow)" />
  <rect x="72" y="72" width="368" height="368" rx="92" fill="#2A2F36" fill-opacity="0.78" />
  <rect x="72" y="72" width="368" height="368" rx="92" stroke="#FFFFFF" stroke-opacity="0.28" stroke-width="2" />

  <rect x="160" y="156" width="192" height="192" rx="44" fill="url(#innerPanel)" fill-opacity="0.92" />
  <rect x="160" y="156" width="192" height="192" rx="44" fill="url(#innerGlow)" />
  <rect x="160" y="156" width="192" height="192" rx="44" stroke="#FFFFFF" stroke-opacity="0.12" stroke-width="2" />

  <path d="M136 272C176 206 240 165 322 152" stroke="#FFFFFF" stroke-opacity="0.14" stroke-width="32" stroke-linecap="round" />
  <path d="M152 286C192 224 252 187 332 176" stroke="url(#whiteArc)" stroke-width="26" stroke-linecap="round" />
  <path d="M152 330C214 262 280 224 366 216" stroke="url(#blueArc)" stroke-width="22" stroke-linecap="round" />

  <path d="M118 136C140 114 175 103 211 108" stroke="#FFFFFF" stroke-opacity="0.9" stroke-width="16" stroke-linecap="round" />
  <circle cx="344" cy="182" r="18" fill="#F8FBFF" fill-opacity="0.86" />
  <circle cx="344" cy="182" r="8" fill="#B7EBFF" fill-opacity="0.84" />
</svg>
